<?xml version="1.0" encoding="utf-8"?>
<svg version="1.1" xmlns:xlink="http://www.w3.org/1999/xlink" width="610px" height="26px" xmlns="http://www.w3.org/2000/svg">
  <defs>
    <mask fill="white" id="clip1063">
      <path d="M 0 24  L 0 2  C 0 0.879999999999995  0.879999999999995 0  2 0  L 22.076923076923 0  L 608 0  C 609.12 0  610 0.879999999999995  610 2  L 610 24  C 610 25.12  609.12 26  608 26  L 2 26  C 0.879999999999995 26  0 25.12  0 24  Z " fill-rule="evenodd" />
    </mask>
  </defs>
  <g transform="matrix(1 0 0 1 -451 -574 )">
    <path d="M 0 24  L 0 2  C 0 0.879999999999995  0.879999999999995 0  2 0  L 22.076923076923 0  L 608 0  C 609.12 0  610 0.879999999999995  610 2  L 610 24  C 610 25.12  609.12 26  608 26  L 2 26  C 0.879999999999995 26  0 25.12  0 24  Z " fill-rule="nonzero" fill="#ffffff" stroke="none" transform="matrix(1 0 0 1 451 574 )" />
    <path d="M 0 24  L 0 2  C 0 0.879999999999995  0.879999999999995 0  2 0  L 22.076923076923 0  L 608 0  C 609.12 0  610 0.879999999999995  610 2  L 610 24  C 610 25.12  609.12 26  608 26  L 2 26  C 0.879999999999995 26  0 25.12  0 24  Z " stroke-width="2" stroke="#d7d7d7" fill="none" transform="matrix(1 0 0 1 451 574 )" mask="url(#clip1063)" />
  </g>
</svg>