<?xml version="1.0" encoding="utf-8"?>
<svg version="1.1" xmlns:xlink="http://www.w3.org/1999/xlink" width="10px" height="10px" xmlns="http://www.w3.org/2000/svg">
  <g transform="matrix(1 0 0 1 -8009 -3359 )">
    <path d="M 8014 3359  C 8016.8 3359  8019 3361.2  8019 3364  C 8019 3366.8  8016.8 3369  8014 3369  C 8011.2 3369  8009 3366.8  8009 3364  C 8009 3361.2  8011.2 3359  8014 3359  Z " fill-rule="nonzero" fill="#81d3f8" stroke="none" />
    <path d="M 8014 3359.5  C 8016.52 3359.5  8018.5 3361.48  8018.5 3364  C 8018.5 3366.52  8016.52 3368.5  8014 3368.5  C 8011.48 3368.5  8009.5 3366.52  8009.5 3364  C 8009.5 3361.48  8011.48 3359.5  8014 3359.5  Z " stroke-width="1" stroke="#d7d7d7" fill="none" />
  </g>
</svg>