<?xml version="1.0" encoding="utf-8"?>
<svg version="1.1" xmlns:xlink="http://www.w3.org/1999/xlink" width="10px" height="10px" xmlns="http://www.w3.org/2000/svg">
  <g transform="matrix(1 0 0 1 -8010 -3411 )">
    <path d="M 8015 3411  C 8017.8 3411  8020 3413.2  8020 3416  C 8020 3418.8  8017.8 3421  8015 3421  C 8012.2 3421  8010 3418.8  8010 3416  C 8010 3413.2  8012.2 3411  8015 3411  Z " fill-rule="nonzero" fill="#ffffff" stroke="none" />
    <path d="M 8015 3411.5  C 8017.52 3411.5  8019.5 3413.48  8019.5 3416  C 8019.5 3418.52  8017.52 3420.5  8015 3420.5  C 8012.48 3420.5  8010.5 3418.52  8010.5 3416  C 8010.5 3413.48  8012.48 3411.5  8015 3411.5  Z " stroke-width="1" stroke="#d7d7d7" fill="none" />
  </g>
</svg>