<?xml version="1.0" encoding="utf-8"?>
<svg version="1.1" xmlns:xlink="http://www.w3.org/1999/xlink" width="13px" height="13px" xmlns="http://www.w3.org/2000/svg">
  <g transform="matrix(1 0 0 1 -2435 -884 )">
    <path d="M 2441.5 884  C 2445.14 884  2448 886.86  2448 890.5  C 2448 894.14  2445.14 897  2441.5 897  C 2437.86 897  2435 894.14  2435 890.5  C 2435 886.86  2437.86 884  2441.5 884  Z " fill-rule="nonzero" fill="#81d3f8" stroke="none" />
    <path d="M 2441.5 884.5  C 2444.86 884.5  2447.5 887.14  2447.5 890.5  C 2447.5 893.86  2444.86 896.5  2441.5 896.5  C 2438.14 896.5  2435.5 893.86  2435.5 890.5  C 2435.5 887.14  2438.14 884.5  2441.5 884.5  Z " stroke-width="1" stroke="#d7d7d7" fill="none" />
  </g>
</svg>