<?xml version="1.0" encoding="utf-8"?>
<svg version="1.1" xmlns:xlink="http://www.w3.org/1999/xlink" width="13px" height="13px" xmlns="http://www.w3.org/2000/svg">
  <g transform="matrix(1 0 0 1 -2435 -841 )">
    <path d="M 2441.5 841  C 2445.14 841  2448 843.86  2448 847.5  C 2448 851.14  2445.14 854  2441.5 854  C 2437.86 854  2435 851.14  2435 847.5  C 2435 843.86  2437.86 841  2441.5 841  Z " fill-rule="nonzero" fill="#ffffff" stroke="none" />
    <path d="M 2441.5 841.5  C 2444.86 841.5  2447.5 844.14  2447.5 847.5  C 2447.5 850.86  2444.86 853.5  2441.5 853.5  C 2438.14 853.5  2435.5 850.86  2435.5 847.5  C 2435.5 844.14  2438.14 841.5  2441.5 841.5  Z " stroke-width="1" stroke="#d7d7d7" fill="none" />
  </g>
</svg>